<svg width="32" height="32" viewBox="0 0 32 32" fill="none" xmlns="http://www.w3.org/2000/svg">
  <rect width="32" height="32" rx="8" fill="#0ea5e9"/>
  <path d="M16 6C10.48 6 6 10.48 6 16C6 21.52 10.48 26 16 26C21.52 26 26 21.52 26 16C26 10.48 21.52 6 16 6ZM16 8C19.87 8 23 11.13 23 15C23 18.87 19.87 22 16 22C12.13 22 9 18.87 9 15C9 11.13 12.13 8 16 8ZM16 10C14.34 10 13 11.34 13 13C13 14.66 14.34 16 16 16C17.66 16 19 14.66 19 13C19 11.34 17.66 10 16 10ZM16 17C13.67 17 11.67 18.67 11 21C12.33 22.33 14.33 23 16 23C17.67 23 19.67 22.33 21 21C20.33 18.67 18.33 17 16 17Z" fill="white"/>
</svg> 